<svg width="25" height="25" viewBox="0 0 25 25" fill="none" xmlns="http://www.w3.org/2000/svg">
<g id="Group">
<g id="Group_2">
<path id="Vector" d="M8.43931 19.0664C7.11407 19.0664 6.03979 20.1709 6.03979 21.5333C6.03979 22.8958 7.11412 24.0003 8.43931 24.0003C9.76456 24.0003 10.8388 22.8958 10.8388 21.5333C10.8389 20.1709 9.76456 19.0664 8.43931 19.0664ZM8.43931 22.9039C7.70308 22.9039 7.10626 22.2903 7.10626 21.5334C7.10626 20.7765 7.70308 20.1629 8.43931 20.1629C9.17555 20.1629 9.77236 20.7765 9.77236 21.5334C9.77242 22.2903 9.17555 22.9039 8.43931 22.9039Z" fill="white" stroke="white" stroke-width="0.5"/>
<path id="Vector_2" d="M18.5692 19.0664C17.2439 19.0664 16.1697 20.1709 16.1697 21.5333C16.1697 22.8958 17.244 24.0003 18.5692 24.0003C19.8944 24.0003 20.9687 22.8958 20.9687 21.5333C20.9687 20.1709 19.8944 19.0664 18.5692 19.0664ZM18.5692 22.9039C17.833 22.9039 17.2361 22.2903 17.2361 21.5334C17.2361 20.7765 17.833 20.1629 18.5692 20.1629C19.3054 20.1629 19.9022 20.7765 19.9022 21.5334C19.9023 22.2903 19.3054 22.9039 18.5692 22.9039Z" fill="white" stroke="white" stroke-width="0.5"/>
<path id="Vector_3" d="M23.9811 4.67307C23.8701 4.54836 23.7181 4.47029 23.5545 4.45376L6.19784 4.20707L5.71794 2.69947C5.37985 1.69165 4.46189 1.01128 3.42502 1H1.6387C1.3442 1 1.10547 1.24543 1.10547 1.54821C1.10547 1.85099 1.3442 2.09643 1.6387 2.09643H3.42502C4.0048 2.1096 4.51532 2.49233 4.7048 3.05581L8.09082 13.5541L7.82423 14.1845C7.52687 14.9729 7.61618 15.8602 8.06419 16.5692C8.50791 17.2657 9.2544 17.6955 10.0638 17.7205H20.4352C20.7297 17.7205 20.9684 17.4751 20.9684 17.1723C20.9684 16.8695 20.7297 16.6241 20.4352 16.6241H10.0638C9.60668 16.6123 9.18592 16.3651 8.94398 15.9662C8.70474 15.5722 8.65559 15.0868 8.81068 14.6505L9.02399 14.1571L20.2485 12.951C21.4815 12.8114 22.4957 11.8895 22.7814 10.6485L24.0612 5.13896C24.1188 4.98031 24.0882 4.80187 23.9811 4.67307ZM21.7416 10.4018C21.5685 11.2007 20.9088 11.7899 20.1152 11.8546L9.02399 13.0333L6.54445 5.3035L22.888 5.55019L21.7416 10.4018Z" fill="white" stroke="white" stroke-width="0.5"/>
</g>
</g>
</svg>
