<svg width="102" height="55" viewBox="0 0 102 55" fill="none" xmlns="http://www.w3.org/2000/svg">
<g id="&#208;&#161;&#208;&#187;&#208;&#190;&#208;&#185; 2">
<g id="Layer 1">
<g id="Group 123">
<path id="Vector" d="M18.6031 43.3676L27.9032 38.3376L18.6031 32.8563L9.30078 38.3376V49.298L18.6031 54.7792V43.3676Z" fill="#F7EEEC"/>
<path id="Vector_2" d="M27.9032 16.4408V5.48047L18.6031 9.87125L9.30078 5.48047V16.4408L18.6031 21.9221L27.9032 16.4408Z" fill="#F7EEEC"/>
<path id="Vector_3" d="M18.6024 32.8713V21.9088L9.30011 16.4297L0 21.9088L9.30011 26.6114V38.3504L18.6024 32.8713Z" fill="#3BAEAB"/>
<path id="Vector_4" d="M27.9032 5.48128L18.6031 9.87206L9.30078 5.48128L18.6031 0L27.9032 5.48128Z" fill="#3BAEAB"/>
<path id="Vector_5" d="M27.9017 38.3398L18.6016 43.3699V54.7815L27.9017 49.3002V38.3398Z" fill="#3BAEAB"/>
<path id="Vector_6" d="M9.30011 38.3483V26.6093L0 21.9066V32.8692L9.30011 38.3483Z" fill="#F7EEEC"/>
</g>
<path id="Vector_7" d="M32.955 29.1499C32.6082 31.0412 30.935 32.6891 28.5358 32.6891C25.8309 32.6891 23.4316 30.6408 23.4316 27.1215C23.4316 23.8345 25.768 21.6602 28.2908 21.6602C31.3641 21.6602 33.1696 23.7704 33.1696 27.0574C33.1761 27.3213 33.1557 27.5852 33.1089 27.8449H25.8092C25.8206 28.5725 26.1138 29.266 26.6247 29.7738C27.1356 30.2815 27.8227 30.5622 28.5358 30.5545C29.9705 30.5545 30.4864 29.7825 30.7703 29.1455L32.955 29.1499ZM30.7768 26.0377C30.7356 24.8211 29.9575 23.7328 28.3169 23.7328C27.6985 23.7252 27.101 23.9601 26.6473 24.3889C26.1937 24.8178 25.9185 25.4079 25.8786 26.0377H30.7768Z" fill="#3BAEAB"/>
<path id="Vector_8" d="M34.2031 32.3701V30.2157L39.2661 24.1571H34.305V21.9805H42.2635V24.073L37.1399 30.1935H42.3675V32.3701H34.2031Z" fill="#3BAEAB"/>
<path id="Vector_9" d="M45.4349 36.5729L47.8341 31.1336L43.5645 21.9805H46.2498L49.1194 28.5523L51.8112 21.9805H54.334L47.9793 36.5795L45.4349 36.5729Z" fill="#3BAEAB"/>
<path id="Vector_10" d="M64.1843 21.7646C62.639 21.7646 61.4838 22.5012 60.9896 23.386V21.9969H58.6792V36.596H61.0503V31.0881C61.5661 31.8668 62.6585 32.4972 64.1019 32.4972C66.9888 32.4972 68.8246 30.1834 68.8246 27.111C68.8246 24.0806 67.1536 21.7646 64.1843 21.7646ZM63.7313 30.3316C62.1643 30.3316 61.0308 29.0686 61.0308 27.111C61.0308 25.1954 62.1643 23.9324 63.7313 23.9324C65.3395 23.9324 66.4318 25.1954 66.4318 27.111C66.4318 29.0686 65.32 30.3316 63.7313 30.3316Z" fill="#3BAEAB"/>
<path id="Vector_11" d="M74.2256 21.6761C71.7505 21.6761 70.6127 22.9547 70.2009 24.1713H72.754C72.754 24.1713 72.9881 23.6758 74.2451 23.6758C75.5651 23.6758 76.1437 24.3703 76.1437 25.2242C76.1437 25.5825 75.979 25.8878 75.4003 25.9608L72.8234 26.3744C71.1111 26.6266 69.7891 27.6374 69.7891 29.4712C69.7891 31.0925 71.0895 32.5679 73.1918 32.5679C74.8217 32.5679 75.81 31.7252 76.2846 30.9466V32.2516H78.4823V25.2927C78.4021 23.344 77.2057 21.6761 74.2256 21.6761ZM76.1351 27.9582C76.1524 29.5066 74.7913 30.6413 73.6469 30.6413C72.6998 30.6413 72.184 30.0109 72.184 29.3141C72.184 28.4713 72.7822 28.0511 73.5234 27.925L76.1437 27.5246L76.1351 27.9582Z" fill="#3BAEAB"/>
<path id="Vector_12" d="M91.1278 28.9195V24.1637H93.2106V21.996H91.1278V18.8594H88.9605V20.4078C88.9605 21.3125 88.4858 22.007 87.4151 22.007H86.9102V24.1748H88.7676V29.3309C88.7676 31.2465 89.9228 32.3812 91.778 32.3812C92.2759 32.406 92.7737 32.3309 93.2432 32.16V30.1383C92.9706 30.1895 92.6945 30.2176 92.4174 30.2223C91.5201 30.2024 91.1278 29.8242 91.1278 28.9195Z" fill="#3BAEAB"/>
<path id="Vector_13" d="M99.1059 26.1643L97.5888 25.8479C96.9711 25.7219 96.5788 25.3215 96.5788 24.7751C96.5788 24.1425 97.177 23.6161 98.0222 23.5961C99.0626 23.5718 99.379 23.8063 99.7215 24.1757H101.813C101.648 23.1648 100.818 21.6761 98.0136 21.6761C95.9308 21.6761 94.3291 23.1914 94.3291 24.9808C94.3291 26.3899 95.2567 27.5689 97.0318 27.9692L98.5142 28.3054C99.3183 28.4736 99.6911 28.896 99.6911 29.4424C99.6911 30.0728 99.1753 30.6214 98.1848 30.6214C96.9061 30.6214 96.2342 30.2409 96.1432 29.3163L94.0625 29.3606C94.2554 30.9244 95.2979 32.5569 98.2065 32.5569C100.764 32.5569 101.999 30.8315 101.999 29.2743C101.993 27.7635 100.998 26.5845 99.1059 26.1643Z" fill="#3BAEAB"/>
<path id="Vector_14" d="M82.451 23.6335V21.9922H80.1211V32.2403H82.5052V27.3584C82.5052 25.4429 83.3569 24.1599 85.2122 24.1599C85.4593 24.1599 85.8906 24.1599 85.9903 24.1599V21.9944H85.3552C84.044 21.9944 82.9256 22.5186 82.451 23.6335Z" fill="#3BAEAB"/>
</g>
</g>
</svg>
